<?xml version="1.0" encoding="UTF-8"?>
<svg id="paul" xmlns="http://www.w3.org/2000/svg" viewBox="0 0 400 400">
  <defs>
    <style>
      .cls-1 {
        fill: #1e4e9d;
      }

      .cls-1, .cls-2, .cls-3, .cls-4, .cls-5, .cls-6, .cls-7, .cls-8, .cls-9, .cls-10 {
        stroke-miterlimit: 10;
      }

      .cls-1, .cls-2, .cls-4, .cls-5, .cls-7, .cls-8, .cls-9, .cls-10 {
        stroke: #1d1d1b;
      }

      .cls-11 {
        fill: #fbfbfb;
      }

      .cls-2 {
        fill: #e0e8f5;
      }

      .cls-3 {
        stroke: #fff;
        stroke-width: 17px;
      }

      .cls-3, .cls-6 {
        fill: none;
      }

      .cls-4, .cls-7, .cls-10 {
        fill: #fff;
      }

      .cls-4, .cls-9 {
        stroke-width: .5px;
      }

      .cls-5 {
        fill: #fddcb7;
      }

      .cls-5, .cls-6, .cls-8 {
        stroke-width: 2px;
      }

      .cls-6 {
        stroke: #49392c;
      }

      .cls-8 {
        fill: #49392c;
      }

      .cls-12 {
        fill: #0d0e1b;
      }

      .cls-9 {
        fill: #010102;
      }

      .cls-10 {
        stroke-width: .75px;
      }

      /* Animations pour Paul */
      
      /* Animation des spirales dans les yeux - plus rapide */
      #pupille {
        animation: spiralePaul 1.2s linear infinite;
        transform-origin: 225.67px 219.11px;
      }
      
      #pupille-2 {
        animation: spiralePaul 1.2s linear infinite reverse;
        transform-origin: 172.75px 219.26px;
      }
      
      @keyframes spiralePaul {
        0% { transform: rotate(0deg); }
        100% { transform: rotate(360deg); }
      }
      
      /* Animation de la tête - mouvement de droite à gauche */
      #visage-2, #cheveux-3, #sourcils-3, #yeux-5, #bouche-3 {
        animation: teteDroiteGauche 4s ease-in-out infinite;
        transform-origin: center;
      }
      
      @keyframes teteDroiteGauche {
        0%, 100% { transform: rotate(0deg) translateX(0); }
        25% { transform: rotate(3deg) translateX(6px); }
        50% { transform: rotate(0deg) translateX(0); }
        75% { transform: rotate(-3deg) translateX(-6px); }
      }
      
      /* Animation des dents - effet domino argenté */
      #dent {
        animation: dentArgentee 4s ease-in-out infinite;
      }
      
      #dent-2 {
        animation: dentArgentee 4s ease-in-out infinite;
        animation-delay: 0.2s;
      }
      
      #dent-3 {
        animation: dentArgentee 4s ease-in-out infinite;
        animation-delay: 0.4s;
      }
      
      #dent-4 {
        animation: dentArgentee 4s ease-in-out infinite;
        animation-delay: 0.6s;
      }
      
      #dent-5 {
        animation: dentArgentee 4s ease-in-out infinite;
        animation-delay: 0.8s;
      }
      
      #dent-6 {
        animation: dentArgentee 4s ease-in-out infinite;
        animation-delay: 1s;
      }
      
      #dent-7 {
        animation: dentArgentee 4s ease-in-out infinite;
        animation-delay: 1.2s;
      }
      
      #dent-8 {
        animation: dentArgentee 4s ease-in-out infinite;
        animation-delay: 1.4s;
      }
      
      #dent-9 {
        animation: dentArgentee 4s ease-in-out infinite;
        animation-delay: 1.6s;
      }
      
      #dent-10 {
        animation: dentArgentee 4s ease-in-out infinite;
        animation-delay: 1.8s;
      }
      
      #dent-11 {
        animation: dentArgentee 4s ease-in-out infinite;
        animation-delay: 2s;
      }
      
      #dent-12 {
        animation: dentArgentee 4s ease-in-out infinite;
        animation-delay: 2.2s;
      }
      
      @keyframes dentArgentee {
        0%, 70%, 100% { fill: #fff; }
        75% { fill: #e8e8e8; }
        80% { fill: #d0d0d0; }
        85% { fill: #c0c0c0; }
        90% { fill: #d0d0d0; }
        95% { fill: #e8e8e8; }
      }
    </style>
  </defs>
  <g id="fond-2" data-name="fond">
    <rect class="cls-1" x="0" y="-.02" width="400.04" height="400.04"/>
    <path class="cls-2" d="M.9,116.6C8.63,115.41,159.74-.02,159.74-.02h93.63l146,108.32v140.44l-49.41,151.24-288,.04L0,211.97l.9-95.37Z"/>
    <polyline class="cls-3" points="322.99 52.21 209.1 206.36 391.63 270.32"/>
    <polyline class="cls-3" points="19.83 270.36 209.1 206.36 91.45 52.31"/>
    <line class="cls-3" x1="329.11" y1="42.68" x2="356.22" y2="-.02"/>
    <line class="cls-3" x1="85.96" y1="42.68" x2="58.85" y2="-.02"/>
    <line class="cls-3" x1="402.38" y1="273.66" x2="397.89" y2="272.32"/>
    <line class="cls-3" x1="-4.5" y1="278.86" x2="8.31" y2="274.27"/>
  </g>
  <g id="t-shirt">
    <path id="maillot" class="cls-12" d="M219.07,288.62l4.62,18.56,7.36,1.12,27.32,8.39,14.19,3.91,14.71.56-.53,9.51v14.54l6.83,30.19,5.25,22.36v1.68h-24.69l-13.14-27.96-1.58-3.91-1.05-.56-1.58,6.71-6.83,21.25-1.58,4.47-10.51.56h-79.86l-2.63-2.8-7.36-19.57-3.68-9.51-1.05-.56-1.05,3.91-6.31,12.3-7.36,15.1-.53.56h-17.34l-8.93-.56,1.05-6.15,3.68-12.86,4.2-13.42,5.25-19.01.53-12.86-.53-11.74,14.19-1.12,9.46-2.24,32.05-10.06,5.78-1.68h0l6.08-19.12"/>
    <path id="badge" class="cls-11" d="M240.54,356.99h4.73v24.7l-6.31,5.25-3.68,3.15-2.1-.53-8.93-6.83-1.58-1.58-.53-2.1-.53-21.02.53-.53,18.39-.53Z"/>
  </g>
  <path id="visage-2" data-name="visage" class="cls-5" d="M137.79,216.56s0-73.59,64.59-73.59,63.64,69.56,63.64,69.56l-12.81,44.35c-.54,1.74-1.54,3.29-2.9,4.5-8.24,7.33-38.41,34.08-42.82,36.37-5.11,2.67-11.78,0-11.78,0l-42.69-31.95c-1.81-1.35-3.1-3.27-3.68-5.45l-11.56-43.78"/>
  <g id="bouche-3" data-name="bouche">
    <polygon id="fond_dent" class="cls-9" points="248.5 238.53 235.49 274.77 226.2 283.14 158.57 263.88 156.62 259.13 248.5 238.53"/>
    <path id="dent" class="cls-4" d="M232.65,268.75l1.27,6.51-3.4,3.72-4.67,3.72-2.12-1.86.42-5.11,4.67-25.09,1.27-3.25"/>
    <path id="dent-2" data-name="dent" class="cls-4" d="M231.28,247.39l.42-4.18,12.31-3.25h1.7l-.42,2.79-5.09,16.26-3.4,10.69-1.27,2.79-.85-.93-.85-2.79-2.55-21.37Z"/>
    <path id="dent-3" data-name="dent" class="cls-4" d="M227.42,243.99l.76.46-.76,5.56-1.51,8.34-3.03,19.92-1.14-.93-4.54-23.62-.76-3.24v-3.24l4.54-1.39,6.43-1.85Z"/>
    <path id="dent-4" data-name="dent" class="cls-4" d="M214.74,250.86l.89.46,3.99,18.59,2.22,8.83v2.32l-7.09-1.86-6.2-1.86.44-4.18,5.32-20.91.44-1.39Z"/>
    <path id="dent-5" data-name="dent" class="cls-4" d="M212.22,247.61h1.7l-.85,4.65-3.39,13.94-1.7,7.9-.85.93-1.27-2.79-4.24-17.66-.85-3.72,3.82-1.39,7.64-1.86Z"/>
    <path id="dent-6" data-name="dent" class="cls-4" d="M199.27,253.18h.83l4.14,17.19,2.07,6.04-1.24.46-12.43-4.18-.41-1.86,4.14-10.69,2.49-6.51.41-.46Z"/>
    <path id="dent-7" data-name="dent" class="cls-4" d="M197.11,250.86l2.16.46-3.02,6.51-3.88,9.76-1.73,3.25-.86-1.86-2.16-11.15-.86-3.72,3.02-1.39,7.33-1.86Z"/>
    <path id="dent-8" data-name="dent" class="cls-4" d="M184.8,255.5l.78.46,2.72,13.94v1.86l-3.88-.93-5.04-1.86-.39-1.39,2.72-5.58,2.33-5.58.78-.93Z"/>
    <path id="dent-9" data-name="dent" class="cls-4" d="M182.21,254.11h1.82l-2.55,5.58-2.55,6.51-1.09.93-2.18-8.83.36-2.32,6.19-1.86Z"/>
    <path id="dent-10" data-name="dent" class="cls-4" d="M164.3,258.76l4.58-1.39,2.92-.93,1.25.46-.83,1.86-3.75,5.58-.83.46-1.67-3.72"/>
    <path id="dent-11" data-name="dent" class="cls-4" d="M165.1,261.2l1.21,2.79v1.39l-3.62-.93-1.21-.46.81-2.32,1.21-2.79,1.61,2.32Z"/>
    <path id="dent-12" data-name="dent" class="cls-4" d="M174,257.83l.79.93,1.97,7.9v1.39l-3.16-.46-3.95-1.86.79-2.32,2.76-4.65.79-.93Z"/>
    <path id="conteneur" class="cls-4" d="M161.43,258.76h1.39l-.93,1.86-1.39,2.32-1.86-.93-.93-2.32,3.72-.93Z"/>
  </g>
  <g id="cheveux-3" data-name="cheveux">
    <g id="cheveux-4" data-name="cheveux">
      <polygon class="cls-8" points="137.79 216.56 164.3 176.86 184.02 185.51 202.13 188.8 207.56 188.8 221.83 184.67 237.28 174.71 266.01 212.76 272.57 170.58 235.62 126.24 168 127.3 131.24 170.58 137.79 216.56"/>
      <path id="chignon" class="cls-8" d="M167.4,130.63c.4,0-5.76-14.8-5.76-14.8l22.86-19.81h31.37l20.37,13.29-1.23,20.37"/>
    </g>
  </g>
  <g id="sourcils-3" data-name="sourcils">
    <line id="sourcil_droit" class="cls-6" x1="214.85" y1="197.05" x2="244.71" y2="197.05"/>
    <line id="sourcil_gauche" class="cls-6" x1="155.29" y1="197.05" x2="185.15" y2="197.05"/>
  </g>
  <g id="yeux-5" data-name="yeux">
    <g id="oeil_droit">
      <ellipse id="conteneur-2" data-name="conteneur" class="cls-10" cx="225.67" cy="219.11" rx="13.44" ry="13.55"/>
      <path id="pupille" class="cls-7" d="M225.61,220.39s-1.15-.07-.4-.81c1.39-1.37,2.66.53,1.76,1.53-.91,1-2.94.82-3.68-.14-.81-1.06-.55-2.9,1.12-3.48s4.43-.1,4.85,1.84-.57,3.41-2.7,4.19-4.68.15-5.9-1.55c-1.51-2.09-.92-4.51-.49-5.28.79-1.44,2.71-2.91,6.31-2.95,3.67-.04,5.56,2.62,5.99,4.67.51,2.44-.44,4.85-3,6.52s-7.84,1.5-9.46.13-2.9-3.14-3.08-6.55c-.2-3.73,2.41-6.17,5.87-7.21,4.66-1.41,7.53.63,9.09,1.44,1.24.64,2.75,2.51,3.39,5.36s.21,6.42-2.14,8.56c-3.29,2.99-9.06,3.18-10.77,2.66-1.71-.52-3.2-1.49-5.56-3.73-1.36-1.29-2.16-3.6-2.59-5.24s-.42-4.17.33-5.94c1.64-3.86,4.25-5.07,5.6-5.73,3.21-1.57,9.86-1.61,14.78,3.62,2.93,3.11,5.78,9.44-.4,16.21-7.66,8.39-18.65.17-20.57-2.73"/>
    </g>
    <g id="oeil_gauche">
      <ellipse id="conteneur-3" data-name="conteneur" class="cls-7" cx="172.75" cy="219.26" rx="13.44" ry="13.55"/>
      <path id="pupille-2" data-name="pupille" class="cls-7" d="M172.68,220.54s-1.15-.07-.4-.81c1.39-1.37,2.66.53,1.76,1.53-.91,1-2.94.82-3.68-.14-.81-1.06-.55-2.9,1.12-3.48s4.43-.1,4.85,1.84-.57,3.41-2.7,4.19-4.68.15-5.9-1.55c-1.51-2.09-.92-4.51-.49-5.28.79-1.44,2.71-2.91,6.31-2.95,3.67-.04,5.56,2.62,5.99,4.67.51,2.44-.44,4.85-3,6.52s-7.84,1.5-9.46.13-2.9-3.14-3.08-6.55c-.2-3.73,2.41-6.17,5.87-7.21,4.66-1.41,7.53.63,9.09,1.44,1.24.64,2.75,2.51,3.39,5.36s.21,6.42-2.14,8.56c-3.29,2.99-9.06,3.18-10.77,2.66-1.71-.52-3.2-1.49-5.56-3.73-1.36-1.29-2.16-3.6-2.59-5.24s-.42-4.17.33-5.94c1.64-3.86,4.25-5.07,5.6-5.73,3.21-1.57,9.86-1.61,14.78,3.62,2.93,3.11,5.78,9.44-.4,16.21-7.66,8.39-18.65.17-20.57-2.73"/>
    </g>
  </g>
</svg>