<?xml version="1.0" encoding="UTF-8"?>
<svg id="solene" xmlns="http://www.w3.org/2000/svg" viewBox="0 0 400 400">
  <defs>
    <style>
      .cls-1, .cls-2 {
        fill: #706f6f;
      }

      .cls-3 {
        fill: #1e4e9d;
      }

      .cls-3, .cls-4, .cls-5, .cls-6, .cls-7, .cls-8, .cls-2, .cls-9, .cls-10, .cls-11, .cls-12 {
        stroke-miterlimit: 10;
      }

      .cls-3, .cls-4, .cls-6, .cls-7, .cls-8, .cls-2, .cls-9, .cls-10, .cls-11, .cls-12 {
        stroke: #1d1d1b;
      }

      .cls-13 {
        fill: #fbfbfb;
      }

      .cls-4 {
        fill: #e0e8f5;
      }

      .cls-5 {
        stroke: #fff;
        stroke-width: 17px;
      }

      .cls-5, .cls-6, .cls-8, .cls-12 {
        fill: none;
      }

      .cls-6, .cls-11 {
        stroke-width: 2px;
      }

      .cls-7, .cls-10 {
        fill: #fff;
      }

      .cls-8 {
        stroke-width: 3px;
      }

      .cls-2 {
        stroke-width: .25px;
      }

      .cls-14 {
        fill: #0d0e1b;
      }

      .cls-9 {
        fill: #1d1d1b;
      }

      .cls-10 {
        stroke-width: .75px;
      }

      .cls-11 {
        fill: #fdf2de;
      }
      
      /* Animations pour Solène */
      
      /* Animation des spirales - rotation sur elles-mêmes */
      .spirale-droite {
        animation: spiraleRotationDroite 1.8s linear infinite;
        transform-origin: 236.31px 218.1px;
      }
      
      .spirale-gauche {
        animation: spiraleRotationGauche 1.8s linear infinite;
        transform-origin: 165.98px 218.55px;
      }
      
      @keyframes spiraleRotationDroite {
        0% { transform: rotate(0deg); }
        100% { transform: rotate(360deg); }
      }
      
      @keyframes spiraleRotationGauche {
        0% { transform: rotate(0deg); }
        100% { transform: rotate(-360deg); }
      }
      
      /* Animation des cils (sourcils) - mouvement expressif */
      #cil {
        animation: cilGauche 3.5s ease-in-out infinite;
        transform-origin: center;
      }
      
      #cil-2 {
        animation: cilDroit 3.5s ease-in-out infinite;
        transform-origin: center;
      }
      
      @keyframes cilGauche {
        0%, 100% { transform: translateY(0px) rotate(0deg); }
        25% { transform: translateY(-1.5px) rotate(-1deg); }
        50% { transform: translateY(1px) rotate(0.5deg); }
        75% { transform: translateY(-0.5px) rotate(-0.3deg); }
      }
      
      @keyframes cilDroit {
        0%, 100% { transform: translateY(0px) rotate(0deg); }
        25% { transform: translateY(-0.5px) rotate(0.3deg); }
        50% { transform: translateY(1.5px) rotate(-0.5deg); }
        75% { transform: translateY(-1px) rotate(1deg); }
      }
      
      /* Animation des cheveux - mouvement naturel */
      #cheveux {
        animation: cheveuxSolene 4.5s ease-in-out infinite;
        transform-origin: center top;
      }
      
      @keyframes cheveuxSolene {
        0%, 100% { transform: rotate(0deg) scale(1); }
        25% { transform: rotate(0.6deg) scale(1.002); }
        50% { transform: rotate(-0.4deg) scale(0.998); }
        75% { transform: rotate(0.5deg) scale(1.001); }
      }
      
      /* Animation du visage - léger mouvement de tête */
      #visage {
        animation: visageSolene 5.5s ease-in-out infinite;
        transform-origin: center;
      }
      
      @keyframes visageSolene {
        0%, 100% { transform: translateX(0px) translateY(0px) rotate(0deg); }
        30% { transform: translateX(0.8px) translateY(-0.3px) rotate(0.2deg); }
        60% { transform: translateX(-0.8px) translateY(0.3px) rotate(-0.15deg); }
      }
      
      /* Animation des lunettes - mouvement synchronisé avec le visage */
      #lunettes {
        animation: lunettesSolene 5.5s ease-in-out infinite;
        transform-origin: center;
      }
      
      @keyframes lunettesSolene {
        0%, 100% { transform: translateX(0px) translateY(0px) rotate(0deg); }
        30% { transform: translateX(0.8px) translateY(-0.3px) rotate(0.2deg); }
        60% { transform: translateX(-0.8px) translateY(0.3px) rotate(-0.15deg); }
      }
      
      /* Animation du sourire synchronisée avec les reflets */
      #bouche {
        animation: sourireSolene 6s ease-in-out infinite;
        transform-origin: center;
      }
      
      @keyframes sourireSolene {
        0%, 60% { 
          transform: scaleX(1) scaleY(1) translateY(0px);
        }
        65% { 
          transform: scaleX(1.01) scaleY(0.995) translateY(-0.1px);
        }
        70% { 
          transform: scaleX(1.03) scaleY(0.985) translateY(-0.3px);
        }
        75% { 
          transform: scaleX(1.05) scaleY(0.975) translateY(-0.4px);
        }
        80% { 
          transform: scaleX(1.07) scaleY(0.96) translateY(-0.5px);
        }
        85% { 
          transform: scaleX(1.09) scaleY(0.94) translateY(-0.6px);
        }
        88% { 
          transform: scaleX(1.1) scaleY(0.92) translateY(-0.7px);
        }
        91% { 
          transform: scaleX(1.09) scaleY(0.94) translateY(-0.6px);
        }
        94% { 
          transform: scaleX(1.07) scaleY(0.96) translateY(-0.5px);
        }
        96% { 
          transform: scaleX(1.04) scaleY(0.98) translateY(-0.3px);
        }
        98% { 
          transform: scaleX(1.02) scaleY(0.99) translateY(-0.1px);
        }
        100% { 
          transform: scaleX(1) scaleY(1) translateY(0px);
        }
      }
      
      /* Animation des reflets sur les lunettes - durée prolongée */
      .reflet-gauche {
        animation: refletGauche 8s ease-in-out infinite;
        transform-origin: center;
      }
      
      .reflet-droit {
        animation: refletDroit 8s ease-in-out infinite;
        transform-origin: center;
      }
      
      @keyframes refletGauche {
        0%, 8% { 
          transform: translateX(-3px) translateY(-2px) rotate(-30deg) scale(0.8);
          opacity: 0;
        }
        12% { 
          transform: translateX(-2px) translateY(-1.5px) rotate(-28deg) scale(0.9);
          opacity: 0.1;
        }
        16% { 
          transform: translateX(-1px) translateY(-1px) rotate(-25deg) scale(1);
          opacity: 0.3;
        }
        20% { 
          transform: translateX(-0.5px) translateY(-0.5px) rotate(-23deg) scale(1.05);
          opacity: 0.5;
        }
        25% { 
          transform: translateX(0px) translateY(0px) rotate(-20deg) scale(1.1);
          opacity: 0.7;
        }
        30% { 
          transform: translateX(0.2px) translateY(0.2px) rotate(-18deg) scale(1.08);
          opacity: 0.7;
        }
        35% { 
          transform: translateX(0.5px) translateY(0.5px) rotate(-18deg) scale(1.05);
          opacity: 0.6;
        }
        40% { 
          transform: translateX(1px) translateY(1px) rotate(-15deg) scale(1);
          opacity: 0.4;
        }
        45% { 
          transform: translateX(1.5px) translateY(1.5px) rotate(-12deg) scale(0.9);
          opacity: 0.2;
        }
        50% { 
          transform: translateX(2px) translateY(2px) rotate(-10deg) scale(0.8);
          opacity: 0.1;
        }
        55%, 82% { 
          transform: translateX(2px) translateY(2px) rotate(-10deg) scale(0.8);
          opacity: 0;
        }
        86% { 
          transform: translateX(-1px) translateY(-1px) rotate(-25deg) scale(0.9);
          opacity: 0.2;
        }
        90% { 
          transform: translateX(-1.5px) translateY(-1.2px) rotate(-26deg) scale(0.88);
          opacity: 0.4;
        }
        94% { 
          transform: translateX(-2px) translateY(-1.5px) rotate(-28deg) scale(0.85);
          opacity: 0.3;
        }
        98% { 
          transform: translateX(-2.5px) translateY(-1.8px) rotate(-29deg) scale(0.82);
          opacity: 0.1;
        }
        100% { 
          transform: translateX(-3px) translateY(-2px) rotate(-30deg) scale(0.8);
          opacity: 0;
        }
      }
      
      @keyframes refletDroit {
        0%, 12% { 
          transform: translateX(3px) translateY(-2px) rotate(30deg) scale(0.8);
          opacity: 0;
        }
        16% { 
          transform: translateX(2px) translateY(-1.5px) rotate(28deg) scale(0.9);
          opacity: 0.1;
        }
        20% { 
          transform: translateX(1px) translateY(-1px) rotate(25deg) scale(1);
          opacity: 0.3;
        }
        24% { 
          transform: translateX(0.5px) translateY(-0.5px) rotate(23deg) scale(1.05);
          opacity: 0.5;
        }
        28% { 
          transform: translateX(0px) translateY(0px) rotate(20deg) scale(1.1);
          opacity: 0.6;
        }
        32% { 
          transform: translateX(-0.2px) translateY(0.2px) rotate(18deg) scale(1.08);
          opacity: 0.6;
        }
        36% { 
          transform: translateX(-0.5px) translateY(0.5px) rotate(18deg) scale(1.05);
          opacity: 0.5;
        }
        40% { 
          transform: translateX(-1px) translateY(1px) rotate(15deg) scale(1);
          opacity: 0.3;
        }
        44% { 
          transform: translateX(-1.5px) translateY(1.5px) rotate(12deg) scale(0.9);
          opacity: 0.2;
        }
        48% { 
          transform: translateX(-2px) translateY(2px) rotate(10deg) scale(0.8);
          opacity: 0.1;
        }
        52%, 80% { 
          transform: translateX(-2px) translateY(2px) rotate(10deg) scale(0.8);
          opacity: 0;
        }
        84% { 
          transform: translateX(1px) translateY(-1px) rotate(25deg) scale(0.9);
          opacity: 0.15;
        }
        88% { 
          transform: translateX(1.5px) translateY(-1.2px) rotate(26deg) scale(0.88);
          opacity: 0.35;
        }
        92% { 
          transform: translateX(2px) translateY(-1.5px) rotate(28deg) scale(0.85);
          opacity: 0.25;
        }
        96% { 
          transform: translateX(2.5px) translateY(-1.8px) rotate(29deg) scale(0.82);
          opacity: 0.15;
        }
        100% { 
          transform: translateX(3px) translateY(-2px) rotate(30deg) scale(0.8);
          opacity: 0;
        }
      }
    </style>
  </defs>
  <g id="fond-2" data-name="fond">
    <rect class="cls-3" x="5.06" y="-.02" width="400.04" height="400.04"/>
    <path class="cls-4" d="M5.96,116.6C13.69,115.41,164.8-.02,164.8-.02h93.63l146,108.32v140.44l-49.41,151.24-288,.04L5.06,211.97l.9-95.37Z"/>
    <polyline class="cls-5" points="328.05 52.21 214.15 206.36 396.69 270.32"/>
    <polyline class="cls-5" points="24.88 270.36 214.15 206.36 96.5 52.31"/>
    <line class="cls-5" x1="334.17" y1="42.68" x2="361.28" y2="-.02"/>
    <line class="cls-5" x1="91.02" y1="42.68" x2="63.91" y2="-.02"/>
    <line class="cls-5" x1=".56" y1="278.86" x2="13.37" y2="274.27"/>
  </g>
  <g id="t-shirt">
    <path id="maillot" class="cls-14" d="M221.96,291.4l4.62,18.56,7.36,1.12,27.32,8.39,14.19,3.91,14.71.56-.53,9.51v14.54l6.83,30.19,5.25,22.36v1.68h-24.69l-13.14-27.96-1.58-3.91-1.05-.56-1.58,6.71-6.83,21.25-1.58,4.47-10.51.56h-79.86l-2.63-2.8-7.36-19.57-3.68-9.51-1.05-.56-1.05,3.91-6.31,12.3-7.36,15.1-.53.56h-17.34l-8.93-.56,1.05-6.15,3.68-12.86,4.2-13.42,5.25-19.01.53-12.86-.53-11.74,14.19-1.12,9.46-2.24,32.05-10.06,5.78-1.68h0l6.08-19.12"/>
    <path id="badge" class="cls-13" d="M243.44,359.77h4.73v24.7l-6.31,5.25-3.68,3.15-2.1-.53-8.93-6.83-1.58-1.58-.53-2.1-.53-21.02.53-.53,18.39-.53Z"/>
  </g>
  <g>
    <rect class="cls-1" x="208.58" y="132.88" width="51.31" height="40.98" transform="translate(402.32 377.27) rotate(-160.11)"/>
    <line class="cls-2" x1="256.82" y1="166.33" x2="241.61" y2="177.83"/>
    <line class="cls-2" x1="258.37" y1="162.05" x2="238.83" y2="176.82"/>
    <line class="cls-2" x1="259.73" y1="158.29" x2="236.27" y2="175.9"/>
    <line class="cls-2" x1="261.22" y1="154.18" x2="233.12" y2="174.75"/>
    <line class="cls-2" x1="262.52" y1="150.59" x2="230.61" y2="173.85"/>
    <line class="cls-2" x1="264.03" y1="146.4" x2="227.78" y2="172.82"/>
    <line class="cls-2" x1="265.33" y1="142.83" x2="224.82" y2="171.48"/>
    <line class="cls-2" x1="262.22" y1="142.03" x2="221.37" y2="170.56"/>
    <line class="cls-2" x1="258.94" y1="140.51" x2="218.09" y2="169.04"/>
    <line class="cls-2" x1="255.17" y1="139.3" x2="214.32" y2="167.83"/>
    <line class="cls-2" x1="251.95" y1="138.13" x2="211.1" y2="166.67"/>
    <line class="cls-2" x1="248.18" y1="136.95" x2="207.33" y2="165.49"/>
    <line class="cls-2" x1="244.02" y1="135.27" x2="203.18" y2="163.8"/>
  </g>
  <g>
    <rect class="cls-1" x="130.93" y="135.33" width="56.78" height="42.86" transform="translate(255.81 358.38) rotate(-160.11)"/>
    <line class="cls-2" x1="184.42" y1="170.85" x2="167.91" y2="182.66"/>
    <line class="cls-2" x1="186.03" y1="166.37" x2="164.84" y2="181.55"/>
    <line class="cls-2" x1="187.46" y1="162.44" x2="162" y2="180.52"/>
    <line class="cls-2" x1="189.01" y1="158.14" x2="158.51" y2="179.26"/>
    <line class="cls-2" x1="190.37" y1="154.38" x2="155.74" y2="178.26"/>
    <line class="cls-2" x1="191.96" y1="150" x2="152.6" y2="177.12"/>
    <line class="cls-2" x1="193.31" y1="146.27" x2="149.32" y2="175.65"/>
    <line class="cls-2" x1="189.87" y1="145.37" x2="145.51" y2="174.62"/>
    <line class="cls-2" x1="186.24" y1="143.71" x2="141.87" y2="172.95"/>
    <line class="cls-2" x1="182.07" y1="142.36" x2="137.71" y2="171.6"/>
    <line class="cls-2" x1="178.51" y1="141.07" x2="134.15" y2="170.31"/>
    <line class="cls-2" x1="174.34" y1="139.75" x2="129.98" y2="169"/>
    <line class="cls-2" x1="169.74" y1="137.89" x2="125.38" y2="167.14"/>
  </g>
  <path id="visage" class="cls-11" d="M138.5,223.17l-11.25-43.7s70.12-35.59,145.5.35l-6.09,40.85-12.81,41.68c-.54,1.63-1.54,3.09-2.9,4.23-8.24,6.89-38.41,32.02-42.82,34.18-5.11,2.51-11.78,0-11.78,0l-42.69-30.03c-1.81-1.27-3.1-3.08-3.68-5.13l-11.48-42.44"/>
  <polygon id="cheveux" class="cls-9" points="200 183.83 221.44 167.78 248.12 160.62 270.04 206.19 274.71 186.31 277.68 211.09 290.11 160.22 245.07 106.62 155.74 106.62 107.89 158.29 119.43 213.27 125.38 191.72 132.26 206.19 148.05 163.15 173.23 168.18 200 183.83"/>
  <path id="bouche" class="cls-6" d="M218.03,263.18s-16.42,12.36-29.66,2.36h0"/>
  <g id="yeux-2" data-name="yeux">
    <g id="oeil_gauche">
      <path id="paupiere" class="cls-7" d="M176.28,209.21c6.74,5.45,8.2,23.55-11,24.06s-17.19-23.51-17.19-23.51"/>
      <g id="pupille">
        <ellipse class="cls-10" cx="165.98" cy="218.55" rx="8.71" ry="8.78"/>
        <path class="cls-10 spirale-gauche" d="M165.94,219.38s-.75-.04-.26-.52c.9-.89,1.72.35,1.14.99-.59.65-1.91.53-2.39-.09-.52-.69-.36-1.88.73-2.25s2.87-.06,3.15,1.19c.28,1.25-.37,2.21-1.75,2.71s-3.03.1-3.83-1c-.98-1.36-.59-2.92-.32-3.42.51-.93,1.75-1.89,4.09-1.91,2.38-.02,3.61,1.7,3.88,3.03.33,1.58-.28,3.14-1.94,4.23s-5.08.97-6.13.08-1.88-2.03-1.99-4.25c-.13-2.42,1.56-4,3.8-4.68,3.02-.91,4.88.41,5.89.93.8.41,1.78,1.62,2.2,3.47.42,1.87.13,4.16-1.39,5.55-2.13,1.94-5.87,2.06-6.98,1.72s-2.08-.97-3.6-2.42c-.88-.83-1.4-2.33-1.68-3.4s-.27-2.71.21-3.85c1.06-2.5,2.76-3.29,3.63-3.71,2.08-1.01,6.39-1.04,9.58,2.35,1.9,2.02,3.74,6.12-.26,10.51-4.96,5.44-12.09.11-13.33-1.77"/>
      </g>
      <polyline id="cil" class="cls-8" points="187.77 219.62 174.88 208.5 148.09 209.77 137.48 204.71"/>
    </g>
    <g id="oeil_droit">
      <path id="paupiere-2" data-name="paupiere" class="cls-7" d="M226.01,208.77c-6.74,5.45-8.2,23.55,11,24.06s17.19-23.51,17.19-23.51"/>
      <g id="pupille-2" data-name="pupille">
        <ellipse class="cls-10" cx="236.31" cy="218.1" rx="8.71" ry="8.78"/>
        <path class="cls-10 spirale-droite" d="M236.35,218.94s.75-.04.26-.52c-.9-.89-1.72.35-1.14.99.59.65,1.91.53,2.39-.09.52-.69.36-1.88-.73-2.25s-2.87-.06-3.15,1.19c-.28,1.25.37,2.21,1.75,2.71s3.03.1,3.83-1c.98-1.36.59-2.92.32-3.42-.51-.93-1.75-1.89-4.09-1.91-2.38-.02-3.61,1.7-3.88,3.03-.33,1.58.28,3.14,1.94,4.23,1.66,1.09,5.08.97,6.13.08s1.88-2.03,1.99-4.25c.13-2.42-1.56-4-3.8-4.68-3.02-.91-4.88.41-5.89.93-.8.41-1.78,1.62-2.2,3.47s-.13,4.16,1.39,5.55c2.13,1.94,5.87,2.06,6.98,1.72s2.08-.97,3.6-2.42c.88-.83,1.4-2.33,1.68-3.4s.27-2.71-.21-3.85c-1.06-2.5-2.76-3.29-3.63-3.71-2.08-1.01-6.39-1.04-9.58,2.35-1.9,2.02-3.74,6.12.26,10.51,4.96,5.44,12.09.11,13.33-1.77"/>
      </g>
      <polyline id="cil-2" data-name="cil" class="cls-8" points="214.52 219.18 227.41 208.06 254.2 209.32 264.81 204.27"/>
    </g>
  </g>
  <g id="lunettes">
    <circle id="verre_droit" class="cls-12" cx="237.62" cy="218.54" r="23.1"/>
    <path id="verre_gauche" class="cls-12" d="M187.16,220.44c0,.97-.06,1.92-.18,2.86-1.41,11.41-11.14,20.24-22.93,20.24-12.76,0-23.1-10.34-23.1-23.1s10.34-23.1,23.1-23.1,23.1,10.34,23.1,23.1Z"/>
    <polyline id="branche" class="cls-12" points="214.52 218.54 200.8 212.74 187.08 218.54"/>
    
    <!-- Reflets sur les verres -->
    <ellipse class="reflet-gauche" cx="158" cy="208" rx="8" ry="12" fill="#F5F5F5" opacity="0" transform="rotate(-25 158 208)"/>
    <ellipse class="reflet-gauche" cx="170" cy="215" rx="4" ry="6" fill="#E8E8E8" opacity="0" transform="rotate(-45 170 215)"/>
    
    <ellipse class="reflet-droit" cx="245" cy="208" rx="8" ry="12" fill="#F5F5F5" opacity="0" transform="rotate(25 245 208)"/>
    <ellipse class="reflet-droit" cx="233" cy="215" rx="4" ry="6" fill="#E8E8E8" opacity="0" transform="rotate(45 233 215)"/>
  </g>
</svg>